<svg width="33" height="33" viewBox="0 0 33 33" fill="none" xmlns="http://www.w3.org/2000/svg">
<rect width="32.3077" height="32.3077" rx="5" fill="#7C5338"/>
<path d="M13.8117 16.8011C13.7512 16.8011 12.4185 16.8011 11.8127 16.8011C11.4896 16.8011 11.3887 16.6799 11.3887 16.377C11.3887 15.5693 11.3887 14.7415 11.3887 13.9338C11.3887 13.6107 11.5098 13.5097 11.8127 13.5097H13.8117C13.8117 13.4491 13.8117 12.278 13.8117 11.7328C13.8117 10.9251 13.9531 10.1578 14.3569 9.45107C14.781 8.72414 15.3867 8.23953 16.1541 7.95684C16.6589 7.77511 17.1637 7.69434 17.7089 7.69434H19.6877C19.9704 7.69434 20.0916 7.81549 20.0916 8.09818V10.4001C20.0916 10.6828 19.9704 10.804 19.6877 10.804C19.1425 10.804 18.5973 10.804 18.0521 10.8241C17.5069 10.8241 17.2242 11.0866 17.2242 11.652C17.2041 12.2578 17.2242 12.8434 17.2242 13.4693H19.5666C19.8896 13.4693 20.0108 13.5905 20.0108 13.9136V16.3568C20.0108 16.6799 19.9098 16.7809 19.5666 16.7809C18.8396 16.7809 17.2848 16.7809 17.2242 16.7809V23.3636C17.2242 23.7068 17.1233 23.828 16.7598 23.828C15.9117 23.828 15.0839 23.828 14.2358 23.828C13.9329 23.828 13.8117 23.7068 13.8117 23.404C13.8117 21.2838 13.8117 16.8616 13.8117 16.8011Z" fill="white"/>
</svg>
