<svg width="33" height="33" viewBox="0 0 33 33" fill="none" xmlns="http://www.w3.org/2000/svg">
<rect x="0.269287" width="32.3077" height="32.3077" rx="5" fill="#7C5338"/>
<g clip-path="url(#clip0_3913_258)">
<path d="M21.4571 5.6543H12.1966C9.18265 5.6543 6.73071 8.10624 6.73071 11.1202V20.3809C6.73071 23.3947 9.18265 25.8466 12.1966 25.8466H21.4573C24.4711 25.8466 26.923 23.3947 26.923 20.3809V11.1202C26.923 8.10624 24.4711 5.6543 21.4571 5.6543V5.6543ZM25.7393 20.3809C25.7393 22.7419 23.8183 24.6628 21.4571 24.6628H12.1966C9.83539 24.6628 7.91447 22.7419 7.91447 20.3809V11.1202C7.91447 8.75897 9.83539 6.83806 12.1966 6.83806H21.4573C23.8183 6.83806 25.7393 8.75897 25.7393 11.1202V20.3809Z" fill="white"/>
<path d="M16.8268 10.2295C13.7824 10.2295 11.3057 12.7062 11.3057 15.7507C11.3057 18.7951 13.7824 21.2719 16.8268 21.2719C19.8713 21.2719 22.348 18.7951 22.348 15.7507C22.348 12.7062 19.8713 10.2295 16.8268 10.2295ZM16.8268 20.0881C14.4353 20.0881 12.4894 18.1424 12.4894 15.7507C12.4894 13.3591 14.4353 11.4133 16.8268 11.4133C19.2185 11.4133 21.1643 13.3591 21.1643 15.7507C21.1643 18.1424 19.2185 20.0881 16.8268 20.0881Z" fill="white"/>
<path d="M22.4801 8.26855C21.5804 8.26855 20.8486 9.00047 20.8486 9.9C20.8486 10.7997 21.5804 11.5316 22.4801 11.5316C23.3798 11.5316 24.1117 10.7997 24.1117 9.9C24.1117 9.00032 23.3798 8.26855 22.4801 8.26855ZM22.4801 10.3477C22.2333 10.3477 22.0324 10.1468 22.0324 9.9C22.0324 9.65305 22.2333 9.45231 22.4801 9.45231C22.727 9.45231 22.9279 9.65305 22.9279 9.9C22.9279 10.1468 22.727 10.3477 22.4801 10.3477Z" fill="white"/>
</g>
<defs>
<clipPath id="clip0_3913_258">
<rect width="20.1923" height="20.1923" fill="white" transform="translate(6.73071 5.6543)"/>
</clipPath>
</defs>
</svg>
