<svg width="33" height="33" viewBox="0 0 33 33" fill="none" xmlns="http://www.w3.org/2000/svg">
<rect x="0.423096" width="32.3077" height="32.3077" rx="5" fill="#7C5338"/>
<path d="M25.0578 23.8274V17.9111C25.0578 15.0034 24.4319 12.7822 21.0396 12.7822C19.404 12.7822 18.3136 13.6707 17.8694 14.5188H17.829V13.0447H14.6184V23.8274H17.9703V18.4765C17.9703 17.063 18.2328 15.7101 19.9694 15.7101C21.6857 15.7101 21.7059 17.3053 21.7059 18.5572V23.8072H25.0578V23.8274Z" fill="white"/>
<path d="M9.1665 13.0449H12.5184V23.8276H9.1665V13.0449Z" fill="white"/>
<path d="M10.8425 7.67383C9.77232 7.67383 8.90405 8.5421 8.90405 9.61229C8.90405 10.6825 9.77232 11.5709 10.8425 11.5709C11.9127 11.5709 12.781 10.6825 12.781 9.61229C12.781 8.5421 11.9127 7.67383 10.8425 7.67383Z" fill="white"/>
</svg>
