<svg width="34" height="33" viewBox="0 0 34 33" fill="none" xmlns="http://www.w3.org/2000/svg">
<rect x="0.846191" width="32.3077" height="32.3077" rx="5" fill="#7C5338"/>
<path d="M25.4605 10.7423C24.8547 11.0048 24.2288 11.1865 23.5624 11.2673C24.2489 10.8635 24.7739 10.2173 25.0163 9.42981C24.3701 9.81346 23.6634 10.076 22.9163 10.2375C22.3105 9.59135 21.4422 9.1875 20.4932 9.1875C18.6557 9.1875 17.1816 10.6817 17.1816 12.499C17.1816 12.7615 17.2018 13.0038 17.2624 13.2462C14.5163 13.125 12.0932 11.7923 10.4576 9.79327C9.28645 11.8933 10.5989 13.6298 11.4672 14.2154C10.9422 14.2154 10.4172 14.0538 9.97299 13.8115C9.97299 15.4471 11.1239 16.8 12.6182 17.1029C12.2951 17.2038 11.5682 17.2644 11.1239 17.1635C11.548 18.476 12.7797 19.4452 14.2134 19.4654C13.0826 20.3538 11.4268 21.0606 9.30664 20.8385C10.7807 21.7875 12.5172 22.3327 14.3951 22.3327C20.4932 22.3327 23.8047 17.2846 23.8047 12.9231C23.8047 12.7817 23.8047 12.6404 23.7845 12.499C24.4711 11.9942 25.0364 11.4087 25.4605 10.7423Z" fill="white"/>
</svg>
